<?xml version="1.0" standalone="no"?>
<!DOCTYPE svg PUBLIC "-//W3C//DTD SVG 20010904//EN"
 "http://www.w3.org/TR/2001/REC-SVG-20010904/DTD/svg10.dtd">
<svg version="1.0" xmlns="http://www.w3.org/2000/svg"
 width="500.000000pt" height="500.000000pt" viewBox="0 0 500.000000 500.000000"
 preserveAspectRatio="xMidYMid meet">

<g transform="translate(0.000000,500.000000) scale(0.100000,-0.100000)"
fill="#000000" stroke="none">
<path d="M2392 4458 c3 -7 19 -14 36 -16 l32 -3 0 -117 c0 -64 3 -127 6 -140
10 -36 114 -51 114 -16 0 10 -7 13 -25 8 -49 -12 -55 5 -55 157 l0 139 -56 0
c-40 0 -55 -4 -52 -12z"/>
<path d="M2680 4455 c0 -8 14 -17 36 -21 32 -6 35 -9 29 -33 -3 -14 -12 -70
-20 -125 -15 -104 -11 -126 25 -146 29 -16 80 -13 80 5 0 10 -10 15 -29 15
-51 0 -54 14 -31 161 11 73 17 135 13 139 -4 4 -29 10 -55 14 -38 4 -48 3 -48
-9z"/>
<path d="M1950 4373 c-41 -14 -77 -26 -78 -28 -4 -3 76 -277 82 -283 2 -1 10
0 18 3 13 5 13 14 -3 70 l-17 64 54 16 c34 10 54 21 54 30 0 19 -7 19 -60 0
-23 -8 -46 -15 -50 -15 -9 0 -42 91 -36 97 2 3 30 12 63 22 37 11 59 23 61 34
4 21 4 21 -88 -10z"/>
<path d="M2281 4338 c0 -18 4 -55 9 -83 9 -56 -4 -89 -41 -100 -34 -11 -48 13
-61 104 -7 52 -16 85 -25 88 -23 9 -24 -1 -12 -93 13 -106 35 -139 83 -130 16
4 39 14 49 24 15 12 21 14 24 5 3 -7 11 -13 19 -13 18 0 18 33 -1 140 -8 47
-15 86 -15 88 0 1 -7 2 -15 2 -10 0 -15 -10 -14 -32z"/>
<path d="M3225 4260 c-31 -34 -22 -76 29 -130 48 -52 56 -78 30 -104 -29 -30
-81 -16 -121 32 -18 21 -25 24 -35 14 -25 -25 75 -102 132 -102 12 0 35 13 51
29 44 45 40 79 -21 146 -55 61 -57 66 -34 89 23 24 49 19 87 -14 37 -32 57
-38 57 -17 0 15 -34 49 -67 66 -35 18 -88 13 -108 -9z"/>
<path d="M2937 4243 c-16 -15 -3 -23 74 -48 95 -30 91 -29 87 -9 -2 10 -31 25
-78 40 -41 13 -75 24 -76 24 0 0 -4 -3 -7 -7z"/>
<path d="M3522 4110 c-10 -17 -16 -18 -32 -10 -31 16 -47 1 -21 -19 l22 -17
-41 -57 c-46 -67 -56 -97 -41 -126 11 -20 60 -51 81 -51 18 0 10 25 -12 35
-51 23 -44 67 23 147 25 31 25 31 53 13 19 -12 30 -15 37 -8 8 8 1 16 -20 29
-36 21 -36 22 -16 51 13 19 13 22 -1 27 -9 3 -16 6 -17 6 -1 0 -8 -9 -15 -20z"/>
<path d="M1540 3925 c-24 -29 8 -75 44 -62 30 12 14 77 -20 77 -6 0 -17 -7
-24 -15z"/>
<path d="M3685 3929 c-4 -6 -5 -11 -4 -13 2 -1 16 -10 31 -19 40 -25 50 -49
32 -76 l-15 -22 -31 26 c-54 45 -99 46 -131 3 -20 -26 -20 -30 -4 -62 11 -23
27 -38 51 -47 23 -8 37 -21 41 -36 7 -28 28 -26 34 3 2 10 25 42 52 71 68 72
66 119 -6 162 -42 24 -42 24 -50 10z m0 -124 l29 -24 -24 -26 c-19 -20 -31
-25 -50 -20 -46 11 -63 51 -34 79 21 22 44 19 79 -9z"/>
<path d="M1067 3720 c-15 -12 -27 -33 -29 -51 l-3 -30 -43 36 c-26 23 -48 35
-58 31 -9 -3 -14 -10 -12 -16 2 -5 58 -54 125 -109 94 -78 124 -97 132 -87 6
7 8 16 5 19 -4 4 5 11 19 16 32 13 61 64 51 94 -12 38 -48 78 -86 98 -47 24
-69 24 -101 -1z m111 -58 c47 -43 53 -71 22 -102 -28 -28 -38 -26 -92 18 -49
38 -58 64 -38 103 18 32 61 24 108 -19z"/>
<path d="M3797 3681 c-36 -34 -42 -45 -42 -81 0 -36 6 -47 38 -76 20 -19 41
-34 47 -34 20 0 9 27 -20 48 -41 31 -41 74 1 113 17 16 42 32 55 35 26 7 72
-17 80 -42 14 -46 15 -47 26 -36 15 15 3 54 -26 85 -20 22 -34 27 -71 27 -39
0 -52 -5 -88 -39z"/>
<path d="M4059 3538 c-46 -28 -108 -64 -136 -81 -29 -17 -53 -35 -53 -39 0
-25 38 -13 124 39 53 32 112 66 131 76 33 16 45 40 27 51 -5 3 -46 -18 -93
-46z"/>
<path d="M904 3493 c-13 -14 -27 -38 -31 -52 -15 -62 81 -150 151 -137 44 8
76 45 83 95 5 35 3 40 -11 35 -9 -3 -16 -17 -16 -30 0 -13 -9 -33 -20 -44 -21
-21 -74 -27 -85 -10 -3 5 11 34 31 64 40 60 39 81 -1 96 -44 17 -75 11 -101
-17z m90 -22 c8 -13 -44 -103 -58 -98 -6 2 -17 15 -25 29 -13 23 -13 29 2 52
12 18 26 26 47 26 16 0 31 -4 34 -9z"/>
<path d="M3971 3371 c-19 -72 -20 -111 -2 -111 4 0 17 34 29 75 12 42 28 75
35 75 6 0 37 -7 67 -15 30 -8 56 -15 58 -15 1 0 -2 8 -7 19 -9 16 -112 51
-149 51 -6 0 -19 -35 -31 -79z"/>
<path d="M740 3347 c0 -8 44 -40 100 -73 55 -33 96 -60 92 -62 -4 -1 -49 9
-100 22 -92 24 -92 24 -103 4 -12 -23 -14 -21 61 -66 75 -44 117 -75 95 -70
-11 3 -64 18 -118 33 -71 21 -100 26 -108 18 -19 -19 -2 -29 78 -47 43 -10
106 -26 141 -36 61 -18 63 -18 73 1 5 11 7 24 4 29 -3 5 -42 30 -86 57 -44 26
-76 49 -70 51 5 2 50 -8 99 -21 l90 -25 10 24 c11 22 6 27 -104 95 -126 78
-154 90 -154 66z"/>
<path d="M4280 3049 c-41 -11 -103 -27 -138 -36 l-63 -16 7 -41 c16 -99 55
-131 147 -124 133 11 177 70 146 194 -6 24 -14 44 -18 43 -3 -1 -40 -10 -81
-20z m74 -63 c9 -49 -10 -82 -58 -101 -88 -36 -152 -19 -175 46 -12 35 -19 30
100 63 119 33 125 33 133 -8z"/>
<path d="M637 2784 c-14 -14 -7 -62 12 -85 18 -23 18 -23 -3 -34 -26 -13 -35
-65 -12 -65 9 0 16 7 16 15 0 17 38 19 128 8 38 -4 52 -10 48 -19 -5 -12 11
-31 19 -23 2 2 6 30 10 62 5 42 4 57 -5 57 -6 0 -14 -9 -17 -20 -4 -16 -14
-20 -52 -20 -46 0 -82 17 -108 50 -20 24 -15 40 12 40 16 0 25 6 25 15 0 8 -9
15 -19 15 -11 0 -26 2 -33 5 -8 3 -17 2 -21 -1z"/>
<path d="M4190 2757 c-14 -7 -33 -29 -44 -50 -17 -36 -17 -40 -2 -82 12 -29
22 -42 31 -39 11 5 11 11 -1 40 -18 42 -11 69 23 91 21 14 26 14 34 2 5 -8 9
-28 9 -45 0 -17 3 -46 6 -64 7 -30 9 -31 43 -25 79 13 108 100 52 156 -25 24
-38 29 -78 29 -26 0 -59 -6 -73 -13z m131 -37 c27 -15 26 -75 -2 -90 -34 -18
-47 -6 -50 49 -4 44 -1 51 14 51 10 0 27 -5 38 -10z"/>
<path d="M690 2509 c-76 -31 -95 -106 -41 -160 25 -25 37 -29 83 -29 95 0 147
59 119 133 -19 50 -105 80 -161 56z m124 -55 c51 -51 -31 -116 -118 -93 -33 9
-46 24 -46 56 0 38 26 53 90 53 40 0 64 -5 74 -16z"/>
<path d="M4305 2494 c-38 -13 -89 -28 -113 -34 -39 -10 -43 -14 -40 -37 3 -24
15 -32 108 -70 58 -24 106 -43 107 -43 2 0 3 8 3 18 0 12 -25 27 -93 54 -91
36 -92 37 -62 48 17 6 57 18 90 27 67 17 78 24 73 45 -2 13 -15 11 -73 -8z"/>
<path d="M703 2236 c-132 -27 -153 -34 -153 -50 0 -16 5 -18 39 -12 22 3 46 8
54 11 11 5 14 -4 13 -40 -1 -38 3 -49 24 -65 32 -25 63 -29 112 -18 66 14 98
43 98 86 0 23 -8 44 -22 59 -12 13 -16 23 -10 23 13 0 17 27 5 32 -5 2 -77
-10 -160 -26z m138 -37 c43 -43 -2 -99 -85 -102 -37 -2 -51 2 -62 17 -31 44
-9 82 56 95 66 13 68 13 91 -10z"/>
<path d="M4160 2243 c-40 -27 -49 -45 -50 -94 0 -49 5 -60 24 -53 7 3 10 18 8
39 -5 46 20 85 54 85 26 0 26 0 19 -57 -14 -101 -15 -98 31 -101 53 -4 92 27
100 78 13 82 -114 153 -186 103z m140 -53 c35 -35 20 -83 -31 -95 -35 -9 -39
0 -26 63 12 56 25 64 57 32z"/>
<path d="M883 2016 c-7 -8 -41 -24 -78 -36 -68 -23 -85 -40 -85 -87 0 -29 33
-93 48 -93 19 0 20 14 1 48 -24 47 -24 57 3 76 22 15 23 15 41 -21 27 -54 47
-73 73 -73 34 0 74 21 76 39 3 38 -5 68 -25 89 -13 14 -21 33 -19 48 4 27 -15
32 -35 10z m27 -66 c26 -26 26 -66 1 -80 -26 -14 -49 -3 -66 31 -20 38 -19 48
8 59 32 13 35 12 57 -10z"/>
<path d="M4046 1939 c-21 -30 -21 -79 -1 -79 9 0 15 9 15 24 0 53 32 51 214
-18 37 -14 72 -26 76 -26 5 0 15 21 24 47 13 37 13 48 4 55 -9 5 -17 -3 -27
-27 l-13 -34 -97 36 c-127 47 -173 53 -195 22z"/>
<path d="M984 1789 c-3 -6 1 -18 10 -28 36 -39 21 -53 -151 -140 -46 -24 -83
-44 -83 -46 0 -5 41 -87 47 -94 2 -3 8 0 14 6 8 8 6 19 -5 41 l-15 30 57 30
c31 17 79 42 106 56 68 36 76 44 76 78 0 49 -38 95 -56 67z"/>
<path d="M3966 1749 c-50 -59 -25 -134 55 -169 59 -25 66 -25 106 0 23 13 34
29 39 54 10 57 -2 84 -53 116 -64 41 -112 41 -147 -1z m124 -30 c41 -25 50
-36 50 -66 0 -57 -65 -69 -128 -23 -32 23 -42 37 -42 58 0 15 5 33 12 40 19
19 69 14 108 -9z"/>
<path d="M3790 1631 c-9 -17 -6 -22 18 -35 48 -25 56 -41 28 -59 -59 -39 -48
-114 25 -166 55 -41 109 -42 138 -5 12 15 21 37 21 50 0 16 5 22 14 18 7 -3
16 1 19 8 3 9 -30 40 -90 83 -52 39 -110 83 -128 98 -33 27 -34 28 -45 8z
m155 -136 c53 -44 60 -68 31 -102 l-23 -26 -48 24 c-31 16 -53 35 -63 56 -14
29 -14 34 2 57 22 35 50 33 101 -9z"/>
<path d="M1104 1579 c-3 -6 3 -21 15 -33 12 -12 21 -28 21 -34 0 -11 -189
-158 -217 -169 -19 -7 -16 -13 22 -56 19 -22 39 -36 45 -32 8 5 7 12 -3 23
-30 35 -28 41 30 84 122 89 153 119 153 144 0 44 -50 99 -66 73z"/>
<path d="M1214 1351 c-92 -56 -100 -166 -15 -201 82 -34 190 75 156 157 -26
61 -84 79 -141 44z m94 -27 c34 -24 29 -66 -13 -106 -44 -40 -63 -48 -92 -35
-48 22 -41 68 17 121 45 40 56 43 88 20z"/>
<path d="M3688 1359 c-26 -10 -68 -64 -68 -88 0 -18 28 -12 35 8 14 46 76 69
110 41 13 -11 7 -20 -41 -67 -53 -52 -55 -56 -39 -74 28 -30 81 -43 117 -28
81 33 65 160 -26 203 -38 18 -49 19 -88 5z m133 -106 c8 -22 6 -32 -9 -52 -23
-31 -50 -37 -77 -17 -19 14 -19 16 20 55 21 23 43 41 47 41 5 0 13 -12 19 -27z"/>
<path d="M3503 1196 c-51 -38 -53 -61 -2 -41 10 4 24 -8 43 -37 35 -54 43 -96
22 -123 -15 -19 -17 -19 -27 -2 -9 16 -39 24 -39 11 0 -14 35 -64 45 -64 24 0
55 41 55 72 0 30 1 31 20 13 18 -16 20 -16 45 3 25 20 20 37 -8 26 -22 -8
-120 125 -105 143 25 30 -9 30 -49 -1z"/>
<path d="M1477 1186 c-3 -8 3 -20 15 -28 19 -13 19 -15 -29 -66 -36 -38 -56
-52 -76 -52 -31 0 -45 23 -28 44 9 11 9 16 0 22 -12 7 -59 -37 -59 -56 0 -5
14 -17 31 -25 23 -13 37 -14 59 -6 28 9 29 9 17 -16 -9 -21 -8 -27 8 -39 33
-24 61 -14 34 13 -8 8 -3 23 20 55 54 75 67 87 90 81 14 -3 21 -1 21 8 0 12
-24 32 -86 71 -7 5 -14 2 -17 -6z"/>
<path d="M1680 1050 c0 -5 9 -14 20 -20 19 -10 19 -13 5 -39 -31 -61 -65 -91
-101 -91 -32 0 -34 2 -24 20 11 21 6 40 -10 40 -10 0 -40 -52 -40 -68 0 -5 14
-15 30 -22 24 -10 37 -10 56 -1 34 15 36 14 24 -9 -8 -16 -6 -22 14 -36 30
-19 59 -8 32 12 -16 11 -14 18 22 86 32 59 44 72 61 70 39 -6 22 24 -27 46
-54 25 -62 26 -62 12z"/>
<path d="M1850 950 c0 -16 -9 -53 -20 -82 -26 -69 -25 -90 4 -117 28 -26 96
-45 110 -31 12 12 9 15 -44 31 -41 13 -45 17 -48 48 -3 31 -2 33 20 27 67 -20
98 -19 123 4 53 50 11 126 -66 118 -27 -2 -40 1 -48 14 -17 27 -31 22 -31 -12z
m108 -36 c47 -32 17 -81 -44 -71 -20 4 -39 8 -41 11 -12 12 9 58 30 66 30 12
30 12 55 -6z"/>
<path d="M3042 948 c-29 -29 -1 -75 38 -63 17 5 20 13 18 38 -3 35 -33 48 -56
25z"/>
<path d="M2097 872 c-10 -10 -17 -33 -17 -51 0 -26 6 -35 31 -49 18 -9 43 -27
58 -38 22 -19 23 -24 12 -38 -17 -20 -34 -20 -78 0 -24 12 -37 14 -45 6 -13
-13 24 -38 72 -47 102 -18 132 78 38 121 -46 21 -65 48 -47 70 16 20 58 17 96
-5 29 -19 43 -18 43 1 0 4 -15 17 -32 28 -42 26 -109 26 -131 2z"/>
<path d="M2648 854 c-40 -12 -51 -22 -69 -56 -24 -48 -22 -123 5 -176 21 -41
82 -65 147 -56 57 8 55 -2 39 156 -15 147 -16 148 -48 147 -15 0 -48 -7 -74
-15z m76 -91 c3 -43 9 -97 12 -119 5 -38 4 -42 -19 -48 -43 -10 -84 11 -101
55 -31 77 -15 152 39 175 57 25 62 21 69 -63z"/>
<path d="M2347 849 c-28 -16 -11 -27 35 -22 50 5 74 -9 84 -51 l7 -28 -82 7
-81 7 0 -26 c0 -100 96 -152 160 -88 52 52 52 132 0 183 -30 31 -87 39 -123
18z m85 -129 c37 0 37 -1 27 -27 -12 -32 -26 -43 -56 -43 -29 0 -53 26 -53 57
0 21 3 24 23 19 12 -3 39 -6 59 -6z"/>
</g>
</svg>
